<?xml version="1.0" encoding="UTF-8" standalone="no"?>
<svg width="748px" height="768px" viewBox="0 0 748 768" version="1.1" xmlns="http://www.w3.org/2000/svg" xmlns:xlink="http://www.w3.org/1999/xlink">
    <!-- Generator: Sketch 50.2 (55047) - http://www.bohemiancoding.com/sketch -->
    <title>logotype</title>
    <desc>Created with Sketch.</desc>
    <defs>
        <path d="M129.527344,660.300781 L137.15625,660.300781 C140.69533,660.300781 143.252922,660.816401 144.829102,661.847656 C146.405281,662.878911 147.193359,664.507801 147.193359,666.734375 C147.193359,668.234383 146.806644,669.482417 146.033203,670.478516 C145.259762,671.474614 144.146492,672.101561 142.693359,672.359375 L142.693359,672.535156 C144.498056,672.875002 145.825191,673.545893 146.674805,674.547852 C147.524418,675.54981 147.949219,676.906241 147.949219,678.617188 C147.949219,680.925793 147.143563,682.733392 145.532227,684.040039 C143.92089,685.346686 141.679702,686 138.808594,686 L129.527344,686 L129.527344,660.300781 Z M133.728516,670.917969 L137.771484,670.917969 C139.529306,670.917969 140.812496,670.639651 141.621094,670.083008 C142.429692,669.526364 142.833984,668.580085 142.833984,667.244141 C142.833984,666.037103 142.397465,665.164065 141.524414,664.625 C140.651363,664.085935 139.265634,663.816406 137.367188,663.816406 L133.728516,663.816406 L133.728516,670.917969 Z M133.728516,674.328125 L133.728516,682.466797 L138.193359,682.466797 C139.951181,682.466797 141.278316,682.129886 142.174805,681.456055 C143.071294,680.782223 143.519531,679.718757 143.519531,678.265625 C143.519531,676.929681 143.062505,675.939456 142.148438,675.294922 C141.23437,674.650387 139.845712,674.328125 137.982422,674.328125 L133.728516,674.328125 Z M193.4375,660.300781 L193.4375,676.929688 C193.4375,678.828134 193.030278,680.489251 192.21582,681.913086 C191.401363,683.336921 190.223641,684.432613 188.682617,685.200195 C187.141594,685.967777 185.298839,686.351562 183.154297,686.351562 C179.966781,686.351562 177.48829,685.507821 175.71875,683.820312 C173.94921,682.132804 173.064453,679.812515 173.064453,676.859375 L173.064453,660.300781 L177.283203,660.300781 L177.283203,676.560547 C177.283203,678.681651 177.775386,680.246089 178.759766,681.253906 C179.744146,682.261724 181.255849,682.765625 183.294922,682.765625 C187.255879,682.765625 189.236328,680.685568 189.236328,676.525391 L189.236328,660.300781 L193.4375,660.300781 Z M228.888672,686 L224.6875,686 L224.6875,663.904297 L217.128906,663.904297 L217.128906,660.300781 L236.447266,660.300781 L236.447266,663.904297 L228.888672,663.904297 L228.888672,686 Z M269.982422,686 L265.78125,686 L265.78125,663.904297 L258.222656,663.904297 L258.222656,660.300781 L277.541016,660.300781 L277.541016,663.904297 L269.982422,663.904297 L269.982422,686 Z M316.015625,686 L301.478516,686 L301.478516,660.300781 L316.015625,660.300781 L316.015625,663.851562 L305.679688,663.851562 L305.679688,670.847656 L315.365234,670.847656 L315.365234,674.363281 L305.679688,674.363281 L305.679688,682.431641 L316.015625,682.431641 L316.015625,686 Z M345.771484,672.253906 L348.689453,672.253906 C350.646494,672.253906 352.064449,671.890629 352.943359,671.164062 C353.82227,670.437496 354.261719,669.359382 354.261719,667.929688 C354.261719,666.476555 353.787114,665.433597 352.837891,664.800781 C351.888667,664.167966 350.458994,663.851562 348.548828,663.851562 L345.771484,663.851562 L345.771484,672.253906 Z M345.771484,675.734375 L345.771484,686 L341.570312,686 L341.570312,660.300781 L348.830078,660.300781 C352.146501,660.300781 354.601555,660.921869 356.195312,662.164062 C357.78907,663.406256 358.585938,665.281237 358.585938,667.789062 C358.585938,670.988297 356.921892,673.267571 353.59375,674.626953 L360.853516,686 L356.072266,686 L349.919922,675.734375 L345.771484,675.734375 Z M388.746094,686 L384.580078,686 L384.580078,660.300781 L399.082031,660.300781 L399.082031,663.851562 L388.746094,663.851562 L388.746094,671.884766 L398.431641,671.884766 L398.431641,675.453125 L388.746094,675.453125 L388.746094,686 Z M423.740234,686 L423.740234,660.300781 L427.941406,660.300781 L427.941406,682.396484 L438.822266,682.396484 L438.822266,686 L423.740234,686 Z M469.439453,672.025391 L475.521484,660.300781 L480.091797,660.300781 L471.53125,676.033203 L471.53125,686 L467.3125,686 L467.3125,676.173828 L458.787109,660.300781 L463.357422,660.300781 L469.439453,672.025391 Z M500.267578,683.802734 C500.267578,682.947261 500.490232,682.291018 500.935547,681.833984 C501.380862,681.376951 502.025386,681.148438 502.869141,681.148438 C503.724614,681.148438 504.374998,681.38574 504.820312,681.860352 C505.265627,682.334963 505.488281,682.982418 505.488281,683.802734 C505.488281,684.63477 505.262698,685.293943 504.811523,685.780273 C504.360349,686.266604 503.712895,686.509766 502.869141,686.509766 C502.025386,686.509766 501.380862,686.269534 500.935547,685.789062 C500.490232,685.308591 500.267578,684.646489 500.267578,683.802734 Z M540.359375,663.535156 C537.9453,663.535156 536.046882,664.390616 534.664062,666.101562 C533.281243,667.812509 532.589844,670.173813 532.589844,673.185547 C532.589844,676.337906 533.254876,678.722648 534.584961,680.339844 C535.915046,681.957039 537.839831,682.765625 540.359375,682.765625 C541.449224,682.765625 542.503901,682.657228 543.523438,682.44043 C544.542974,682.223632 545.60351,681.945314 546.705078,681.605469 L546.705078,685.208984 C544.689443,685.970707 542.40431,686.351562 539.849609,686.351562 C536.087872,686.351562 533.199229,685.211925 531.183594,682.932617 C529.167959,680.653309 528.160156,677.392599 528.160156,673.150391 C528.160156,670.478502 528.649409,668.140635 529.62793,666.136719 C530.60645,664.132802 532.021475,662.597662 533.873047,661.53125 C535.724619,660.464838 537.898425,659.931641 540.394531,659.931641 C543.019544,659.931641 545.445301,660.482416 547.671875,661.583984 L546.160156,665.082031 C545.292964,664.671873 544.375981,664.311525 543.40918,664.000977 C542.442378,663.690428 541.425787,663.535156 540.359375,663.535156 Z M583.351562,686 L575.898438,664.537109 L575.757812,664.537109 C575.957032,667.724625 576.056641,670.712877 576.056641,673.501953 L576.056641,686 L572.242188,686 L572.242188,660.300781 L578.166016,660.300781 L585.302734,680.744141 L585.408203,680.744141 L592.755859,660.300781 L598.697266,660.300781 L598.697266,686 L594.654297,686 L594.654297,673.291016 C594.654297,672.013665 594.686523,670.34962 594.750977,668.298828 C594.81543,666.248037 594.871094,665.005862 594.917969,664.572266 L594.777344,664.572266 L587.060547,686 L583.351562,686 Z M640.283203,679.021484 C640.283203,681.306652 639.45704,683.099603 637.804688,684.400391 C636.152335,685.701178 633.873061,686.351562 630.966797,686.351562 C628.060532,686.351562 625.68165,685.900395 623.830078,684.998047 L623.830078,681.025391 C625.001959,681.576175 626.247064,682.009764 627.56543,682.326172 C628.883796,682.64258 630.111322,682.800781 631.248047,682.800781 C632.912118,682.800781 634.139644,682.484378 634.930664,681.851562 C635.721684,681.218747 636.117188,680.369146 636.117188,679.302734 C636.117188,678.341792 635.75391,677.527347 635.027344,676.859375 C634.300778,676.191403 632.800793,675.400395 630.527344,674.486328 C628.183582,673.537105 626.531255,672.453131 625.570312,671.234375 C624.60937,670.015619 624.128906,668.55079 624.128906,666.839844 C624.128906,664.695302 624.890617,663.007819 626.414062,661.777344 C627.937508,660.546869 629.982409,659.931641 632.548828,659.931641 C635.009778,659.931641 637.458972,660.470698 639.896484,661.548828 L638.560547,664.976562 C636.275379,664.01562 634.236337,663.535156 632.443359,663.535156 C631.083978,663.535156 630.052738,663.831052 629.349609,664.422852 C628.646481,665.014651 628.294922,665.79687 628.294922,666.769531 C628.294922,667.437503 628.435545,668.008787 628.716797,668.483398 C628.998048,668.95801 629.460934,669.406248 630.105469,669.828125 C630.750003,670.250002 631.910148,670.806637 633.585938,671.498047 C635.472666,672.283207 636.855464,673.015622 637.734375,673.695312 C638.613286,674.375003 639.25781,675.142574 639.667969,675.998047 C640.078127,676.85352 640.283203,677.861322 640.283203,679.021484 Z" id="path-1"></path>
        <filter x="-1.4%" y="-18.8%" width="102.7%" height="152.7%" filterUnits="objectBoundingBox" id="filter-2">
            <feOffset dx="0" dy="2" in="SourceAlpha" result="shadowOffsetOuter1"></feOffset>
            <feGaussianBlur stdDeviation="2" in="shadowOffsetOuter1" result="shadowBlurOuter1"></feGaussianBlur>
            <feColorMatrix values="0 0 0 0 0   0 0 0 0 0   0 0 0 0 0  0 0 0 0.242810236 0" type="matrix" in="shadowBlurOuter1"></feColorMatrix>
        </filter>
        <path d="M129.223633,733 L129.223633,717.294922 L131.049805,717.294922 L131.049805,733 L129.223633,733 Z M148.775,733 L146.691016,733 L138.108008,719.819336 L138.022071,719.819336 C138.136655,721.366219 138.193946,722.784173 138.193946,724.073242 L138.193946,733 L136.507422,733 L136.507422,717.294922 L138.569922,717.294922 L147.131446,730.421875 L147.217383,730.421875 C147.20306,730.228515 147.170834,729.607264 147.120704,728.558105 C147.070573,727.508947 147.05267,726.758791 147.066993,726.307617 L147.066993,717.294922 L148.775,717.294922 L148.775,733 Z M166.510938,733 L164.426953,733 L155.843946,719.819336 L155.758008,719.819336 C155.872592,721.366219 155.929883,722.784173 155.929883,724.073242 L155.929883,733 L154.24336,733 L154.24336,717.294922 L156.30586,717.294922 L164.867383,730.421875 L164.953321,730.421875 C164.938998,730.228515 164.906771,729.607264 164.856641,728.558105 C164.806511,727.508947 164.788607,726.758791 164.80293,726.307617 L164.80293,717.294922 L166.510938,717.294922 L166.510938,733 Z M185.611133,725.125977 C185.611133,727.639661 184.97556,729.616204 183.704395,731.055664 C182.43323,732.495124 180.666157,733.214844 178.403125,733.214844 C176.089963,733.214844 174.304987,732.507657 173.048145,731.093262 C171.791303,729.678867 171.162891,727.68263 171.162891,725.104492 C171.162891,722.547839 171.793093,720.565925 173.053516,719.158691 C174.313939,717.751458 176.104286,717.047852 178.42461,717.047852 C180.68048,717.047852 182.442182,717.76399 183.709766,719.196289 C184.97735,720.628588 185.611133,722.605131 185.611133,725.125977 Z M173.096485,725.125977 C173.096485,727.25294 173.549442,728.866043 174.455371,729.965332 C175.3613,731.064621 176.677205,731.614258 178.403125,731.614258 C180.143368,731.614258 181.457483,731.066412 182.345508,729.970703 C183.233533,728.874995 183.677539,727.260102 183.677539,725.125977 C183.677539,723.013336 183.235324,721.410976 182.350879,720.318848 C181.466435,719.22672 180.157691,718.680664 178.42461,718.680664 C176.684367,718.680664 175.3613,719.2303 174.455371,720.32959 C173.549442,721.428879 173.096485,723.027659 173.096485,725.125977 Z M199.017969,717.294922 L200.983789,717.294922 L195.322657,733 L193.517969,733 L187.889063,717.294922 L189.822657,717.294922 L193.432032,727.457031 C193.847398,728.624355 194.176822,729.759435 194.420313,730.862305 C194.678127,729.702143 195.014712,728.545579 195.430078,727.392578 L199.017969,717.294922 Z M213.28418,733 L211.329102,728.004883 L205.03418,728.004883 L203.100586,733 L201.25293,733 L207.461914,717.230469 L208.998047,717.230469 L215.174805,733 L213.28418,733 Z M210.759766,726.361328 L208.933594,721.495117 C208.697265,720.879229 208.453778,720.123702 208.203125,719.228516 C208.045572,719.916019 207.819989,720.671545 207.526367,721.495117 L205.678711,726.361328 L210.759766,726.361328 Z M221.781836,733 L219.955664,733 L219.955664,718.916992 L214.982032,718.916992 L214.982032,717.294922 L226.755469,717.294922 L226.755469,718.916992 L221.781836,718.916992 L221.781836,733 Z M230.26875,733 L230.26875,717.294922 L232.094922,717.294922 L232.094922,733 L230.26875,733 Z M246.522266,717.294922 L248.488086,717.294922 L242.826953,733 L241.022266,733 L235.39336,717.294922 L237.326953,717.294922 L240.936328,727.457031 C241.351695,728.624355 241.681119,729.759435 241.92461,730.862305 C242.182423,729.702143 242.519009,728.545579 242.934375,727.392578 L246.522266,717.294922 Z M260.552149,733 L251.797266,733 L251.797266,717.294922 L260.552149,717.294922 L260.552149,718.916992 L253.623438,718.916992 L253.623438,723.976562 L260.133203,723.976562 L260.133203,725.587891 L253.623438,725.587891 L253.623438,731.367188 L260.552149,731.367188 L260.552149,733 Z M278.77207,718.702148 C277.04615,718.702148 275.683697,719.27685 274.684668,720.42627 C273.68564,721.575689 273.186133,723.149404 273.186133,725.147461 C273.186133,727.20281 273.667736,728.790847 274.630957,729.911621 C275.594178,731.032395 276.967374,731.592773 278.750586,731.592773 C279.846295,731.592773 281.095957,731.395835 282.49961,731.001953 L282.49961,732.602539 C281.411062,733.010744 280.068302,733.214844 278.471289,733.214844 C276.158127,733.214844 274.373151,732.513028 273.116309,731.109375 C271.859467,729.705722 271.231055,727.711276 271.231055,725.125977 C271.231055,723.507479 271.533623,722.089524 272.13877,720.87207 C272.743916,719.654616 273.617605,718.716475 274.759863,718.057617 C275.902122,717.39876 277.246672,717.069336 278.793555,717.069336 C280.440698,717.069336 281.880137,717.370114 283.111914,717.97168 L282.338477,719.540039 C281.149669,718.981443 279.960878,718.702148 278.77207,718.702148 Z M300.267774,725.125977 C300.267774,727.639661 299.6322,729.616204 298.361035,731.055664 C297.08987,732.495124 295.322798,733.214844 293.059766,733.214844 C290.746603,733.214844 288.961628,732.507657 287.704785,731.093262 C286.447943,729.678867 285.819531,727.68263 285.819531,725.104492 C285.819531,722.547839 286.449733,720.565925 287.710156,719.158691 C288.970579,717.751458 290.760926,717.047852 293.08125,717.047852 C295.337121,717.047852 297.098822,717.76399 298.366406,719.196289 C299.633991,720.628588 300.267774,722.605131 300.267774,725.125977 Z M287.753125,725.125977 C287.753125,727.25294 288.206083,728.866043 289.112012,729.965332 C290.017941,731.064621 291.333846,731.614258 293.059766,731.614258 C294.800009,731.614258 296.114123,731.066412 297.002149,729.970703 C297.890174,728.874995 298.33418,727.260102 298.33418,725.125977 C298.33418,723.013336 297.891964,721.410976 297.00752,720.318848 C296.123075,719.22672 294.814332,718.680664 293.08125,718.680664 C291.341007,718.680664 290.017941,719.2303 289.112012,720.32959 C288.206083,721.428879 287.753125,723.027659 287.753125,725.125977 Z M317.187305,733 L315.10332,733 L306.520313,719.819336 L306.434375,719.819336 C306.548959,721.366219 306.60625,722.784173 306.60625,724.073242 L306.60625,733 L304.919727,733 L304.919727,717.294922 L306.982227,717.294922 L315.54375,730.421875 L315.629688,730.421875 C315.615365,730.228515 315.583138,729.607264 315.533008,728.558105 C315.482877,727.508947 315.464974,726.758791 315.479297,726.307617 L315.479297,717.294922 L317.187305,717.294922 L317.187305,733 Z M327.489649,733 L325.663477,733 L325.663477,718.916992 L320.689844,718.916992 L320.689844,717.294922 L332.463281,717.294922 L332.463281,718.916992 L327.489649,718.916992 L327.489649,733 Z M344.731445,733 L335.976563,733 L335.976563,717.294922 L344.731445,717.294922 L344.731445,718.916992 L337.802734,718.916992 L337.802734,723.976562 L344.3125,723.976562 L344.3125,725.587891 L337.802734,725.587891 L337.802734,731.367188 L344.731445,731.367188 L344.731445,733 Z M361.629492,733 L359.545508,733 L350.9625,719.819336 L350.876563,719.819336 C350.991146,721.366219 351.048438,722.784173 351.048438,724.073242 L351.048438,733 L349.361914,733 L349.361914,717.294922 L351.424414,717.294922 L359.985938,730.421875 L360.071875,730.421875 C360.057552,730.228515 360.025326,729.607264 359.975195,728.558105 C359.925065,727.508947 359.907161,726.758791 359.921484,726.307617 L359.921484,717.294922 L361.629492,717.294922 L361.629492,733 Z M371.931836,733 L370.105664,733 L370.105664,718.916992 L365.132031,718.916992 L365.132031,717.294922 L376.905469,717.294922 L376.905469,718.916992 L371.931836,718.916992 L371.931836,733 Z M394.233789,733 L388.905664,719.078125 L388.819727,719.078125 C388.919987,720.180995 388.970117,721.491529 388.970117,723.009766 L388.970117,733 L387.283594,733 L387.283594,717.294922 L390.033594,717.294922 L395.007227,730.25 L395.093164,730.25 L400.109766,717.294922 L402.838281,717.294922 L402.838281,733 L401.012109,733 L401.012109,722.880859 C401.012109,721.720697 401.062239,720.460293 401.1625,719.099609 L401.076562,719.099609 L395.705469,733 L394.233789,733 Z M418.167969,733 L416.212891,728.004883 L409.917969,728.004883 L407.984375,733 L406.136719,733 L412.345703,717.230469 L413.881836,717.230469 L420.058594,733 L418.167969,733 Z M415.643555,726.361328 L413.817383,721.495117 C413.581053,720.879229 413.337566,720.123702 413.086914,719.228516 C412.929361,719.916019 412.703777,720.671545 412.410156,721.495117 L410.5625,726.361328 L415.643555,726.361328 Z M435.635351,733 L433.551367,733 L424.968359,719.819336 L424.882422,719.819336 C424.997006,721.366219 425.054297,722.784173 425.054297,724.073242 L425.054297,733 L423.367773,733 L423.367773,717.294922 L425.430273,717.294922 L433.991797,730.421875 L434.077734,730.421875 C434.063411,730.228515 434.031185,729.607264 433.981055,728.558105 C433.930924,727.508947 433.913021,726.758791 433.927344,726.307617 L433.927344,717.294922 L435.635351,717.294922 L435.635351,733 Z M450.975781,733 L449.020703,728.004883 L442.725781,728.004883 L440.792187,733 L438.944531,733 L445.153516,717.230469 L446.689648,717.230469 L452.866406,733 L450.975781,733 Z M448.451367,726.361328 L446.625195,721.495117 C446.388866,720.879229 446.145379,720.123702 445.894726,719.228516 C445.737174,719.916019 445.51159,720.671545 445.217969,721.495117 L443.370312,726.361328 L448.451367,726.361328 Z M462.642383,724.771484 L467.98125,724.771484 L467.98125,732.40918 C467.150517,732.674155 466.305473,732.874674 465.446094,733.010742 C464.586714,733.146811 463.591282,733.214844 462.459765,733.214844 C460.082149,733.214844 458.230931,732.507657 456.906055,731.093262 C455.581178,729.678867 454.91875,727.696953 454.91875,725.147461 C454.91875,723.51464 455.246383,722.084153 455.90166,720.855957 C456.556937,719.627761 457.500449,718.689619 458.732226,718.041504 C459.964003,717.393389 461.407023,717.069336 463.061328,717.069336 C464.737118,717.069336 466.2983,717.377276 467.744922,717.993164 L467.035937,719.604492 C465.617962,719.002927 464.253717,718.702148 462.943164,718.702148 C461.031045,718.702148 459.537896,719.271479 458.463672,720.410156 C457.389448,721.548834 456.852344,723.12792 456.852344,725.147461 C456.852344,727.267263 457.369754,728.874995 458.40459,729.970703 C459.439426,731.066412 460.95943,731.614258 462.964648,731.614258 C464.053195,731.614258 465.116661,731.488934 466.155078,731.238281 L466.155078,726.404297 L462.642383,726.404297 L462.642383,724.771484 Z M481.65664,733 L472.901758,733 L472.901758,717.294922 L481.65664,717.294922 L481.65664,718.916992 L474.72793,718.916992 L474.72793,723.976562 L481.237695,723.976562 L481.237695,725.587891 L474.72793,725.587891 L474.72793,731.367188 L481.65664,731.367188 L481.65664,733 Z M493.237305,733 L487.90918,719.078125 L487.823242,719.078125 C487.923503,720.180995 487.973633,721.491529 487.973633,723.009766 L487.973633,733 L486.287109,733 L486.287109,717.294922 L489.037109,717.294922 L494.010742,730.25 L494.09668,730.25 L499.113281,717.294922 L501.841797,717.294922 L501.841797,733 L500.015625,733 L500.015625,722.880859 C500.015625,721.720697 500.065755,720.460293 500.166015,719.099609 L500.080078,719.099609 L494.708984,733 L493.237305,733 Z M516.054297,733 L507.299414,733 L507.299414,717.294922 L516.054297,717.294922 L516.054297,718.916992 L509.125586,718.916992 L509.125586,723.976562 L515.635351,723.976562 L515.635351,725.587891 L509.125586,725.587891 L509.125586,731.367188 L516.054297,731.367188 L516.054297,733 Z M532.952344,733 L530.868359,733 L522.285351,719.819336 L522.199414,719.819336 C522.313998,721.366219 522.371289,722.784173 522.371289,724.073242 L522.371289,733 L520.684765,733 L520.684765,717.294922 L522.747265,717.294922 L531.308789,730.421875 L531.394726,730.421875 C531.380403,730.228515 531.348177,729.607264 531.298047,728.558105 C531.247916,727.508947 531.230013,726.758791 531.244336,726.307617 L531.244336,717.294922 L532.952344,717.294922 L532.952344,733 Z M543.254687,733 L541.428515,733 L541.428515,718.916992 L536.454883,718.916992 L536.454883,717.294922 L548.22832,717.294922 L548.22832,718.916992 L543.254687,718.916992 L543.254687,733 Z M567.46875,728.821289 C567.46875,730.203457 566.967453,731.281246 565.964843,732.054688 C564.962234,732.828129 563.601571,733.214844 561.882812,733.214844 C560.020824,733.214844 558.588546,732.974937 557.585937,732.495117 L557.585937,730.733398 C558.230472,731.005535 558.932288,731.220377 559.691406,731.37793 C560.450524,731.535483 561.20247,731.614258 561.947265,731.614258 C563.164719,731.614258 564.081377,731.383303 564.697265,730.921387 C565.313154,730.45947 565.621093,729.816736 565.621093,728.993164 C565.621093,728.448891 565.511882,728.003094 565.293457,727.655762 C565.075031,727.308429 564.7098,726.987957 564.197754,726.694336 C563.685707,726.400715 562.906906,726.06771 561.861328,725.695312 C560.400383,725.172523 559.356611,724.553063 558.72998,723.836914 C558.103349,723.120765 557.790039,722.186204 557.790039,721.033203 C557.790039,719.822911 558.244787,718.859704 559.154297,718.143555 C560.063806,717.427405 561.266919,717.069336 562.763672,717.069336 C564.324877,717.069336 565.760735,717.355791 567.071289,717.928711 L566.501953,719.518555 C565.205722,718.974281 563.945318,718.702148 562.720703,718.702148 C561.753901,718.702148 560.998375,718.909829 560.454101,719.325195 C559.909828,719.740562 559.637695,720.317054 559.637695,721.054688 C559.637695,721.598961 559.737954,722.044757 559.938476,722.39209 C560.138998,722.739422 560.477374,723.058104 560.953613,723.348145 C561.429852,723.638185 562.158523,723.958657 563.139648,724.30957 C564.786792,724.896813 565.920081,725.527015 566.53955,726.200195 C567.15902,726.873376 567.46875,727.747065 567.46875,728.821289 Z M575.826757,725.147461 L580.016211,717.294922 L581.992773,717.294922 L576.750586,726.90918 L576.750586,733 L574.902929,733 L574.902929,726.995117 L569.671484,717.294922 L571.669531,717.294922 L575.826757,725.147461 Z M594.164257,728.821289 C594.164257,730.203457 593.66296,731.281246 592.660351,732.054688 C591.657742,732.828129 590.297079,733.214844 588.57832,733.214844 C586.716331,733.214844 585.284054,732.974937 584.281445,732.495117 L584.281445,730.733398 C584.925979,731.005535 585.627795,731.220377 586.386914,731.37793 C587.146032,731.535483 587.897978,731.614258 588.642773,731.614258 C589.860227,731.614258 590.776885,731.383303 591.392773,730.921387 C592.008662,730.45947 592.316601,729.816736 592.316601,728.993164 C592.316601,728.448891 592.20739,728.003094 591.988964,727.655762 C591.770539,727.308429 591.405308,726.987957 590.893261,726.694336 C590.381215,726.400715 589.602414,726.06771 588.556836,725.695312 C587.095891,725.172523 586.052119,724.553063 585.425488,723.836914 C584.798857,723.120765 584.485547,722.186204 584.485547,721.033203 C584.485547,719.822911 584.940295,718.859704 585.849804,718.143555 C586.759314,717.427405 587.962427,717.069336 589.459179,717.069336 C591.020385,717.069336 592.456243,717.355791 593.766797,717.928711 L593.197461,719.518555 C591.90123,718.974281 590.640826,718.702148 589.416211,718.702148 C588.449409,718.702148 587.693883,718.909829 587.149609,719.325195 C586.605335,719.740562 586.333203,720.317054 586.333203,721.054688 C586.333203,721.598961 586.433462,722.044757 586.633984,722.39209 C586.834506,722.739422 587.172881,723.058104 587.649121,723.348145 C588.12536,723.638185 588.854031,723.958657 589.835156,724.30957 C591.4823,724.896813 592.615589,725.527015 593.235058,726.200195 C593.854527,726.873376 594.164257,727.747065 594.164257,728.821289 Z M603.360156,733 L601.533984,733 L601.533984,718.916992 L596.560351,718.916992 L596.560351,717.294922 L608.333789,717.294922 L608.333789,718.916992 L603.360156,718.916992 L603.360156,733 Z M620.601953,733 L611.84707,733 L611.84707,717.294922 L620.601953,717.294922 L620.601953,718.916992 L613.673242,718.916992 L613.673242,723.976562 L620.183007,723.976562 L620.183007,725.587891 L613.673242,725.587891 L613.673242,731.367188 L620.601953,731.367188 L620.601953,733 Z M632.182617,733 L626.854492,719.078125 L626.768554,719.078125 C626.868815,720.180995 626.918945,721.491529 626.918945,723.009766 L626.918945,733 L625.232421,733 L625.232421,717.294922 L627.982421,717.294922 L632.956054,730.25 L633.041992,730.25 L638.058593,717.294922 L640.787109,717.294922 L640.787109,733 L638.960937,733 L638.960937,722.880859 C638.960937,721.720697 639.011067,720.460293 639.111328,719.099609 L639.02539,719.099609 L633.654296,733 L632.182617,733 Z" id="path-3"></path>
        <filter x="-1.4%" y="-30.9%" width="102.7%" height="186.6%" filterUnits="objectBoundingBox" id="filter-4">
            <feOffset dx="0" dy="2" in="SourceAlpha" result="shadowOffsetOuter1"></feOffset>
            <feGaussianBlur stdDeviation="2" in="shadowOffsetOuter1" result="shadowBlurOuter1"></feGaussianBlur>
            <feColorMatrix values="0 0 0 0 0   0 0 0 0 0   0 0 0 0 0  0 0 0 0.24 0" type="matrix" in="shadowBlurOuter1"></feColorMatrix>
        </filter>
        <linearGradient x1="50%" y1="83.7407855%" x2="50%" y2="13.8766243%" id="linearGradient-5">
            <stop stop-color="#FFFFFF" offset="0%"></stop>
            <stop stop-color="#FFFFFF" stop-opacity="0" offset="100%"></stop>
        </linearGradient>
        <path d="M300.441406,578.658203 C352.457031,578.658203 337.246094,515.966797 373.691406,500.677734 C351.494141,489.871094 322.09375,485.962891 300.441406,493.193359 C270.919922,502.541016 261.882812,523.879173 261.882812,541 C261.882812,558.120827 276.476562,578.658203 300.441406,578.658203 Z" id="path-6"></path>
        <filter x="-22.8%" y="-18.5%" width="140.2%" height="150.5%" filterUnits="objectBoundingBox" id="filter-7">
            <feMorphology radius="0.5" operator="dilate" in="SourceAlpha" result="shadowSpreadOuter1"></feMorphology>
            <feOffset dx="-3" dy="6" in="shadowSpreadOuter1" result="shadowOffsetOuter1"></feOffset>
            <feGaussianBlur stdDeviation="6" in="shadowOffsetOuter1" result="shadowBlurOuter1"></feGaussianBlur>
            <feColorMatrix values="0 0 0 0 0   0 0 0 0 0   0 0 0 0 0  0 0 0 0.36 0" type="matrix" in="shadowBlurOuter1"></feColorMatrix>
        </filter>
        <path d="M427.419111,583.067012 C455.556052,570.495915 464.262017,516.081781 499.083608,499.717946 C476.886342,488.911305 447.485952,485.003102 425.833608,492.233571 C398.934488,501.466055 391.935667,525.209642 391.935667,542.33047 C391.935667,559.451297 412.240497,588.408901 427.419111,583.067012 Z" id="path-8"></path>
        <filter x="-23.8%" y="-17.3%" width="142.0%" height="147.3%" filterUnits="objectBoundingBox" id="filter-9">
            <feMorphology radius="0.5" operator="dilate" in="SourceAlpha" result="shadowSpreadOuter1"></feMorphology>
            <feOffset dx="-3" dy="6" in="shadowSpreadOuter1" result="shadowOffsetOuter1"></feOffset>
            <feGaussianBlur stdDeviation="6" in="shadowOffsetOuter1" result="shadowBlurOuter1"></feGaussianBlur>
            <feColorMatrix values="0 0 0 0 0   0 0 0 0 0   0 0 0 0 0  0 0 0 0.36 0" type="matrix" in="shadowBlurOuter1"></feColorMatrix>
        </filter>
        <linearGradient x1="75.6601979%" y1="100%" x2="50%" y2="0%" id="linearGradient-10">
            <stop stop-color="#FFFFFF" stop-opacity="0.740772192" offset="0%"></stop>
            <stop stop-color="#FFFFFF" stop-opacity="0" offset="100%"></stop>
        </linearGradient>
        <path d="M236.198766,562.694759 C246.624433,453.870296 268.671896,355.96905 268.671896,270.601718 C268.671896,185.234386 227.660593,116.467126 200.225212,116.03049 C172.789831,115.593854 131.778528,185.234386 131.778528,270.601718 C131.778528,355.96905 138.059955,410.87455 236.198766,562.694759 Z" id="path-11"></path>
        <filter x="-17.9%" y="-3.9%" width="131.4%" height="109.6%" filterUnits="objectBoundingBox" id="filter-12">
            <feMorphology radius="0.5" operator="dilate" in="SourceAlpha" result="shadowSpreadOuter1"></feMorphology>
            <feOffset dx="-3" dy="4" in="shadowSpreadOuter1" result="shadowOffsetOuter1"></feOffset>
            <feGaussianBlur stdDeviation="6" in="shadowOffsetOuter1" result="shadowBlurOuter1"></feGaussianBlur>
            <feColorMatrix values="0 0 0 0 0   0 0 0 0 0   0 0 0 0 0  0 0 0 0.36 0" type="matrix" in="shadowBlurOuter1"></feColorMatrix>
        </filter>
        <linearGradient x1="11.3392416%" y1="21.2093065%" x2="86.4697897%" y2="100%" id="linearGradient-13">
            <stop stop-color="#000000" stop-opacity="0" offset="0%"></stop>
            <stop stop-color="#000000" stop-opacity="0.19921875" offset="100%"></stop>
        </linearGradient>
        <linearGradient x1="85.5629882%" y1="100%" x2="50%" y2="0%" id="linearGradient-14">
            <stop stop-color="#FFFFFF" offset="0%"></stop>
            <stop stop-color="#FFFFFF" stop-opacity="0" offset="100%"></stop>
        </linearGradient>
        <linearGradient x1="84.7559823%" y1="100%" x2="50%" y2="36.6746294%" id="linearGradient-15">
            <stop stop-color="#FFFFFF" stop-opacity="0.5" offset="0%"></stop>
            <stop stop-color="#FFFFFF" stop-opacity="0" offset="100%"></stop>
        </linearGradient>
        <path d="M269.684054,535.670078 C283.240362,406.478577 294.918494,298.467756 294.918494,197.123504 C294.918494,95.7792524 241.592231,14.1418586 205.918494,13.623504 C170.244758,13.1051494 116.918494,95.7792524 116.918494,197.123504 C116.918494,298.467756 214.568381,448.727433 269.684054,535.670078 Z" id="path-16"></path>
        <filter x="-19.1%" y="-6.1%" width="138.2%" height="113.0%" filterUnits="objectBoundingBox" id="filter-17">
            <feOffset dx="0" dy="2" in="SourceAlpha" result="shadowOffsetOuter1"></feOffset>
            <feGaussianBlur stdDeviation="11" in="shadowOffsetOuter1" result="shadowBlurOuter1"></feGaussianBlur>
            <feColorMatrix values="0 0 0 0 0   0 0 0 0 0   0 0 0 0 0  0 0 0 0.162930254 0" type="matrix" in="shadowBlurOuter1"></feColorMatrix>
        </filter>
        <linearGradient x1="100%" y1="100%" x2="50%" y2="35.0884169%" id="linearGradient-18">
            <stop stop-color="#FFFFFF" offset="0%"></stop>
            <stop stop-color="#FFFFFF" stop-opacity="0" offset="100%"></stop>
        </linearGradient>
        <path d="M573.73403,538.321575 C571.322658,451.120029 571.828213,393.958575 571.248159,345.226936 C570.668105,296.495298 571.387723,186.243515 543.952342,185.893257 C516.51696,185.542999 480.11075,272.85046 480.11075,341.329932 C480.11075,409.809404 501.868614,461.962917 573.73403,538.321575 Z" id="path-19"></path>
        <filter x="-26.2%" y="-5.0%" width="145.9%" height="112.2%" filterUnits="objectBoundingBox" id="filter-20">
            <feMorphology radius="0.5" operator="dilate" in="SourceAlpha" result="shadowSpreadOuter1"></feMorphology>
            <feOffset dx="-3" dy="4" in="shadowSpreadOuter1" result="shadowOffsetOuter1"></feOffset>
            <feGaussianBlur stdDeviation="6" in="shadowOffsetOuter1" result="shadowBlurOuter1"></feGaussianBlur>
            <feColorMatrix values="0 0 0 0 0   0 0 0 0 0   0 0 0 0 0  0 0 0 0.36 0" type="matrix" in="shadowBlurOuter1"></feColorMatrix>
        </filter>
        <path d="M546.354251,519.17151 C543.942879,430.363479 550.436117,368.292028 549.856063,318.662623 C549.276009,269.033218 544.007944,160.607232 516.572562,160.250521 C489.137181,159.89381 460.541919,237.323515 460.541919,307.064562 C460.541919,376.805609 474.488835,441.406122 546.354251,519.17151 Z" id="path-21"></path>
        <filter x="-38.1%" y="-8.9%" width="176.1%" height="118.9%" filterUnits="objectBoundingBox" id="filter-22">
            <feOffset dx="0" dy="2" in="SourceAlpha" result="shadowOffsetOuter1"></feOffset>
            <feGaussianBlur stdDeviation="11" in="shadowOffsetOuter1" result="shadowBlurOuter1"></feGaussianBlur>
            <feColorMatrix values="0 0 0 0 0   0 0 0 0 0   0 0 0 0 0  0 0 0 0.162930254 0" type="matrix" in="shadowBlurOuter1"></feColorMatrix>
        </filter>
    </defs>
    <g id="logotype" stroke="none" stroke-width="1" fill="none" fill-rule="evenodd">
        <g id="BUTTERFLY.CMS">
            <use fill="black" fill-opacity="1" filter="url(#filter-2)" xlink:href="#path-1"></use>
            <use fill="#1785DB" fill-rule="evenodd" xlink:href="#path-1"></use>
        </g>
        <g id="innovative-content-m">
            <use fill="black" fill-opacity="1" filter="url(#filter-4)" xlink:href="#path-3"></use>
            <use fill="#9B9B9B" fill-rule="evenodd" xlink:href="#path-3"></use>
        </g>
        <g id="butterfly" transform="translate(0.000000, -7.000000)">
            <g id="Oval-2" transform="translate(317.787109, 534.085530) rotate(1.000000) translate(-317.787109, -534.085530) ">
                <use fill="black" fill-opacity="1" filter="url(#filter-7)" xlink:href="#path-6"></use>
                <use fill="#1785DB" fill-rule="evenodd" xlink:href="#path-6"></use>
                <use fill="url(#linearGradient-5)" fill-rule="evenodd" style="mix-blend-mode: soft-light;" xlink:href="#path-6"></use>
            </g>
            <g id="Oval-2-Copy" transform="translate(445.509637, 536.133876) scale(-1, 1) rotate(1.000000) translate(-445.509637, -536.133876) ">
                <use fill="black" fill-opacity="1" filter="url(#filter-9)" xlink:href="#path-8"></use>
                <use fill="#1785DB" fill-rule="evenodd" xlink:href="#path-8"></use>
                <use fill="url(#linearGradient-5)" fill-rule="evenodd" style="mix-blend-mode: soft-light;" xlink:href="#path-8"></use>
            </g>
            <g id="Oval-Copy" transform="translate(200.225212, 339.361603) rotate(-41.000000) translate(-200.225212, -339.361603) ">
                <use fill="black" fill-opacity="1" filter="url(#filter-12)" xlink:href="#path-11"></use>
                <use fill="#166AAC" fill-rule="evenodd" xlink:href="#path-11"></use>
                <use fill-opacity="0.55" fill="url(#linearGradient-10)" fill-rule="evenodd" style="mix-blend-mode: soft-light;" xlink:href="#path-11"></use>
            </g>
            <path d="M262.453382,541.585075 C276.00969,412.393574 287.687823,304.382752 287.687823,203.038501 C287.687823,101.694249 234.361559,20.0568553 198.687823,19.5385008 C163.014087,19.0201462 109.687823,101.694249 109.687823,203.038501 C109.687823,304.382752 207.33771,454.64243 262.453382,541.585075 Z" id="Oval-Copy-4_" fill="url(#linearGradient-13)" opacity="0.55" transform="translate(198.687823, 280.560576) rotate(-27.000000) translate(-198.687823, -280.560576) "></path>
            <g id="Oval" transform="translate(205.918494, 274.645579) rotate(-25.000000) translate(-205.918494, -274.645579) ">
                <use fill="black" fill-opacity="1" filter="url(#filter-17)" xlink:href="#path-16"></use>
                <use fill="#1785DB" fill-rule="evenodd" xlink:href="#path-16"></use>
                <use fill="url(#linearGradient-14)" fill-rule="evenodd" style="mix-blend-mode: soft-light;" xlink:href="#path-16"></use>
                <use fill="url(#linearGradient-15)" fill-rule="evenodd" xlink:href="#path-16"></use>
            </g>
            <g id="Oval-Copy-2" transform="translate(526.922390, 362.106891) scale(-1, 1) rotate(-33.000000) translate(-526.922390, -362.106891) ">
                <use fill="black" fill-opacity="1" filter="url(#filter-20)" xlink:href="#path-19"></use>
                <use fill="#166AAC" fill-rule="evenodd" xlink:href="#path-19"></use>
                <use fill-opacity="0.44" fill="url(#linearGradient-18)" fill-rule="evenodd" style="mix-blend-mode: soft-light;" xlink:href="#path-19"></use>
            </g>
            <path d="M553.683759,525.243362 C551.272387,436.435331 557.765625,374.36388 557.185571,324.734475 C556.605518,275.10507 551.337452,166.679084 523.902071,166.322373 C496.466689,165.965662 467.871428,243.395367 467.871428,313.136414 C467.871428,382.877461 481.818343,447.477974 553.683759,525.243362 Z" id="Oval-Copy-3_" fill="url(#linearGradient-13)" opacity="0.552964154" transform="translate(512.546930, 345.782254) scale(-1, 1) rotate(-28.000000) translate(-512.546930, -345.782254) "></path>
            <g id="Oval-Copy-4" transform="translate(505.217422, 339.710402) scale(-1, 1) rotate(-25.000000) translate(-505.217422, -339.710402) ">
                <use fill="black" fill-opacity="1" filter="url(#filter-22)" xlink:href="#path-21"></use>
                <use fill="#1785DB" fill-rule="evenodd" xlink:href="#path-21"></use>
                <use fill="url(#linearGradient-14)" fill-rule="evenodd" style="mix-blend-mode: soft-light;" xlink:href="#path-21"></use>
                <use fill="url(#linearGradient-15)" fill-rule="evenodd" xlink:href="#path-21"></use>
            </g>
        </g>
    </g>
</svg>