<?xml version="1.0" encoding="UTF-8" standalone="no"?>
<svg width="1460px" height="206px" viewBox="0 0 1460 206" version="1.1" xmlns="http://www.w3.org/2000/svg" xmlns:xlink="http://www.w3.org/1999/xlink">
    <!-- Generator: Sketch 50.2 (55047) - http://www.bohemiancoding.com/sketch -->
    <title>logotype-inline</title>
    <desc>Created with Sketch.</desc>
    <defs>
        <linearGradient x1="50%" y1="83.7407855%" x2="50%" y2="13.8766243%" id="linearGradient-1">
            <stop stop-color="#FFFFFF" offset="0%"></stop>
            <stop stop-color="#FFFFFF" stop-opacity="0" offset="100%"></stop>
        </linearGradient>
        <path d="M100.551607,193.950327 C118.062563,193.950327 112.941831,172.869394 125.211073,167.728215 C117.738408,164.094319 107.840825,162.780127 100.551607,165.211481 C90.613259,168.354772 87.5709343,175.53005 87.5709343,181.287187 C87.5709343,187.044324 92.4838909,193.950327 100.551607,193.950327 Z" id="path-2"></path>
        <filter x="-19.9%" y="-11.7%" width="129.2%" height="136.7%" filterUnits="objectBoundingBox" id="filter-3">
            <feOffset dx="-2" dy="2" in="SourceAlpha" result="shadowOffsetOuter1"></feOffset>
            <feGaussianBlur stdDeviation="1.5" in="shadowOffsetOuter1" result="shadowBlurOuter1"></feGaussianBlur>
            <feColorMatrix values="0 0 0 0 0   0 0 0 0 0   0 0 0 0 0  0 0 0 0.149003623 0" type="matrix" in="shadowBlurOuter1"></feColorMatrix>
        </filter>
        <path d="M143.227854,195.269611 C152.641437,191.038874 155.554132,172.726082 167.204152,167.218919 C159.777766,163.582001 149.941479,162.266716 142.697403,164.700092 C133.697949,167.807236 131.356401,175.798016 131.356401,181.559941 C131.356401,187.321866 138.149649,197.067396 143.227854,195.269611 Z" id="path-4"></path>
        <filter x="-20.9%" y="-10.9%" width="130.7%" height="134.3%" filterUnits="objectBoundingBox" id="filter-5">
            <feOffset dx="-2" dy="2" in="SourceAlpha" result="shadowOffsetOuter1"></feOffset>
            <feGaussianBlur stdDeviation="1.5" in="shadowOffsetOuter1" result="shadowBlurOuter1"></feGaussianBlur>
            <feColorMatrix values="0 0 0 0 0   0 0 0 0 0   0 0 0 0 0  0 0 0 0.145125679 0" type="matrix" in="shadowBlurOuter1"></feColorMatrix>
        </filter>
        <linearGradient x1="75.6601979%" y1="100%" x2="50%" y2="0%" id="linearGradient-6">
            <stop stop-color="#FFFFFF" stop-opacity="0.740772192" offset="0%"></stop>
            <stop stop-color="#FFFFFF" stop-opacity="0" offset="100%"></stop>
        </linearGradient>
        <path d="M79.0029518,188.569935 C82.4936181,152.05304 89.8754325,119.201516 89.8754325,90.5558442 C89.8754325,61.9101723 76.1442461,38.8347835 66.9584775,38.6882669 C57.7727089,38.5417503 44.0415225,61.9101723 44.0415225,90.5558442 C44.0415225,119.201516 46.1446366,137.625484 79.0029518,188.569935 Z" id="path-7"></path>
        <filter x="-16.4%" y="-2.3%" width="124.0%" height="107.3%" filterUnits="objectBoundingBox" id="filter-8">
            <feOffset dx="-2" dy="2" in="SourceAlpha" result="shadowOffsetOuter1"></feOffset>
            <feGaussianBlur stdDeviation="1.5" in="shadowOffsetOuter1" result="shadowBlurOuter1"></feGaussianBlur>
            <feColorMatrix values="0 0 0 0 0   0 0 0 0 0   0 0 0 0 0  0 0 0 0.153136322 0" type="matrix" in="shadowBlurOuter1"></feColorMatrix>
        </filter>
        <linearGradient x1="11.3392416%" y1="21.2093065%" x2="86.4697897%" y2="100%" id="linearGradient-9">
            <stop stop-color="#000000" stop-opacity="0" offset="0%"></stop>
            <stop stop-color="#000000" stop-opacity="0.19921875" offset="100%"></stop>
        </linearGradient>
        <linearGradient x1="85.5629882%" y1="100%" x2="50%" y2="0%" id="linearGradient-10">
            <stop stop-color="#FFFFFF" offset="0%"></stop>
            <stop stop-color="#FFFFFF" stop-opacity="0" offset="100%"></stop>
        </linearGradient>
        <linearGradient x1="84.7559823%" y1="100%" x2="50%" y2="36.6746294%" id="linearGradient-11">
            <stop stop-color="#FFFFFF" stop-opacity="0.5" offset="0%"></stop>
            <stop stop-color="#FFFFFF" stop-opacity="0" offset="100%"></stop>
        </linearGradient>
        <path d="M89.9036414,179.602614 C94.4278569,136.234213 98.3252595,99.9759712 98.3252595,65.9556357 C98.3252595,31.9353003 80.5284146,4.53037624 68.6228374,4.35636936 C56.7172602,4.18236248 38.9204152,31.9353003 38.9204152,65.9556357 C38.9204152,99.9759712 71.5096081,150.416766 89.9036414,179.602614 Z" id="path-12"></path>
        <filter x="-57.2%" y="-18.3%" width="214.5%" height="138.8%" filterUnits="objectBoundingBox" id="filter-13">
            <feOffset dx="0" dy="2" in="SourceAlpha" result="shadowOffsetOuter1"></feOffset>
            <feGaussianBlur stdDeviation="11" in="shadowOffsetOuter1" result="shadowBlurOuter1"></feGaussianBlur>
            <feColorMatrix values="0 0 0 0 0   0 0 0 0 0   0 0 0 0 0  0 0 0 0.162930254 0" type="matrix" in="shadowBlurOuter1"></feColorMatrix>
        </filter>
        <linearGradient x1="100%" y1="100%" x2="50%" y2="35.0884169%" id="linearGradient-14">
            <stop stop-color="#FFFFFF" offset="0%"></stop>
            <stop stop-color="#FFFFFF" stop-opacity="0" offset="100%"></stop>
        </linearGradient>
        <path d="M192.297578,180.371242 C191.486394,151.146704 191.656462,131.989737 191.461332,115.657921 C191.266203,99.3261051 191.508282,62.3765604 182.279038,62.2591756 C173.049793,62.1417908 160.802768,91.401825 160.802768,114.351888 C160.802768,137.30195 168.122099,154.780566 192.297578,180.371242 Z" id="path-15"></path>
        <filter x="-23.8%" y="-3.0%" width="134.9%" height="109.3%" filterUnits="objectBoundingBox" id="filter-16">
            <feOffset dx="-2" dy="2" in="SourceAlpha" result="shadowOffsetOuter1"></feOffset>
            <feGaussianBlur stdDeviation="1.5" in="shadowOffsetOuter1" result="shadowBlurOuter1"></feGaussianBlur>
            <feColorMatrix values="0 0 0 0 0   0 0 0 0 0   0 0 0 0 0  0 0 0 0.150928442 0" type="matrix" in="shadowBlurOuter1"></feColorMatrix>
        </filter>
        <path d="M182.917325,173.709804 C182.108817,143.914735 184.285933,123.089781 184.091447,106.43913 C183.896961,89.7884788 182.130632,53.4115916 172.93183,53.2919152 C163.733027,53.1722388 154.145329,79.1498826 154.145329,102.547984 C154.145329,125.946085 158.821587,147.619539 182.917325,173.709804 Z" id="path-17"></path>
        <filter x="-113.5%" y="-26.6%" width="327.0%" height="156.5%" filterUnits="objectBoundingBox" id="filter-18">
            <feOffset dx="0" dy="2" in="SourceAlpha" result="shadowOffsetOuter1"></feOffset>
            <feGaussianBlur stdDeviation="11" in="shadowOffsetOuter1" result="shadowBlurOuter1"></feGaussianBlur>
            <feColorMatrix values="0 0 0 0 0   0 0 0 0 0   0 0 0 0 0  0 0 0 0.162930254 0" type="matrix" in="shadowBlurOuter1"></feColorMatrix>
        </filter>
        <path d="M309,55.2849873 L337.437192,55.2849873 C350.629319,55.2849873 360.162891,57.2443828 366.038193,61.1632328 C371.913495,65.0820827 374.851101,71.2719914 374.851101,79.7331447 C374.851101,85.43329 373.409599,90.1759179 370.526551,93.9611707 C367.643504,97.7464235 363.493725,100.12887 358.077089,101.108583 L358.077089,101.776565 C364.804201,103.068004 369.751174,105.617445 372.918159,109.424964 C376.085143,113.232483 377.668611,118.387029 377.668611,124.888758 C377.668611,133.661638 374.665482,140.530655 368.659132,145.496016 C362.652783,150.461377 354.298622,152.94402 343.5964,152.94402 L309,152.94402 L309,55.2849873 Z M324.629796,95.6335878 L339.647221,95.6335878 C346.176569,95.6335878 350.942921,94.5760284 353.946422,92.4608779 C356.949922,90.3457273 358.451649,86.7500254 358.451649,81.6736641 C358.451649,77.0871272 356.830219,73.7697303 353.587309,71.721374 C350.3444,69.6730177 345.197174,68.648855 338.145479,68.648855 L324.629796,68.648855 L324.629796,95.6335878 Z M324.629796,108.740458 L324.629796,139.580153 L341.221475,139.580153 C347.753665,139.580153 352.685394,138.303504 356.016811,135.750169 C359.348227,133.196834 361.013911,129.167065 361.013911,123.660742 C361.013911,118.598478 359.315567,114.846241 355.918828,112.403921 C352.52209,109.9616 347.361737,108.740458 340.437616,108.740458 L324.629796,108.740458 Z M483.746242,55.2849873 L483.746242,118.443586 C483.746242,125.654117 482.230271,131.963238 479.198283,137.371136 C476.166295,142.779035 471.781975,146.940606 466.045192,149.855976 C460.30841,152.771345 453.448367,154.229008 445.46486,154.229008 C433.598662,154.229008 424.37196,151.024375 417.784475,144.615014 C411.196991,138.205652 407.903298,129.392913 407.903298,118.176531 L407.903298,55.2849873 L423.608481,55.2849873 L423.608481,117.041545 C423.608481,125.097756 425.440734,131.039679 429.105295,134.867492 C432.769855,138.695305 438.39749,140.609183 445.988366,140.609183 C460.733861,140.609183 468.106498,132.708873 468.106498,116.908017 L468.106498,55.2849873 L483.746242,55.2849873 Z M552.428842,152.94402 L536.771069,152.94402 L536.771069,68.9786273 L508.600179,68.9786273 L508.600179,55.2849873 L580.599731,55.2849873 L580.599731,68.9786273 L552.428842,68.9786273 L552.428842,152.94402 Z M642.107998,152.94402 L626.450225,152.94402 L626.450225,68.9786273 L598.279336,68.9786273 L598.279336,55.2849873 L670.278887,55.2849873 L670.278887,68.9786273 L642.107998,68.9786273 L642.107998,152.94402 Z M749.965223,152.94402 L695.901503,152.94402 L695.901503,55.2849873 L749.965223,55.2849873 L749.965223,68.7782326 L711.525722,68.7782326 L711.525722,95.3639338 L747.546411,95.3639338 L747.546411,108.723583 L711.525722,108.723583 L711.525722,139.383977 L749.965223,139.383977 L749.965223,152.94402 Z M797.623289,100.773537 L808.454813,100.773537 C815.719364,100.773537 820.982823,99.3957289 824.245346,96.6400715 C827.50787,93.8844142 829.139107,89.7954356 829.139107,84.3730131 C829.139107,78.8616984 827.377371,74.9060561 823.853846,72.5059674 C820.33032,70.1058787 815.023362,68.9058524 807.932811,68.9058524 L797.623289,68.9058524 L797.623289,100.773537 Z M797.62399,113.933846 L797.62399,152.94402 L781.993493,152.94402 L781.993493,55.2849873 L809.003515,55.2849873 C821.342295,55.2849873 830.476343,57.6451683 836.405933,62.3656012 C842.335524,67.086034 845.300274,74.2111088 845.300274,83.7410393 C845.300274,95.8983806 839.109177,104.5598 826.726797,109.725556 L853.736818,152.94402 L835.948136,152.94402 L813.058288,113.933846 L797.62399,113.933846 Z M894.378015,152.94402 L878.846982,152.94402 L878.846982,55.2849873 L932.910702,55.2849873 L932.910702,68.7782326 L894.378015,68.7782326 L894.378015,99.3050302 L930.486026,99.3050302 L930.486026,112.865074 L894.378015,112.865074 L894.378015,152.94402 Z M961.351806,152.94402 L961.351806,55.2849873 L976.982498,55.2849873 L976.982498,139.25038 L1017.46534,139.25038 L1017.46534,152.94402 L961.351806,152.94402 Z M1068.19812,99.8394162 L1090.87371,55.2849873 L1107.91317,55.2849873 L1075.99695,115.069416 L1075.99695,152.94402 L1060.26821,152.94402 L1060.26821,115.603802 L1028.48306,55.2849873 L1045.52252,55.2849873 L1068.19812,99.8394162 Z M1119.69957,144.748751 C1119.69957,141.509162 1120.53007,139.024036 1122.19109,137.293297 C1123.85211,135.562558 1126.25619,134.697201 1129.40338,134.697201 C1132.59429,134.697201 1135.02022,135.595841 1136.68124,137.393146 C1138.34226,139.190452 1139.17276,141.642296 1139.17276,144.748751 C1139.17276,147.899583 1138.33134,150.395804 1136.64846,152.237488 C1134.96558,154.079172 1132.55058,155 1129.40338,155 C1126.25619,155 1123.85211,154.090266 1122.19109,152.270771 C1120.53007,150.451276 1119.69957,147.943961 1119.69957,144.748751 Z M1205.67984,67.705676 C1196.67664,67.705676 1189.59656,70.9593487 1184.43938,77.4667916 C1179.28221,83.9742345 1176.70366,92.9552625 1176.70366,104.410145 C1176.70366,116.399886 1179.18388,125.470055 1184.14438,131.620926 C1189.10488,137.771797 1196.28329,140.847186 1205.67984,140.847186 C1209.74439,140.847186 1213.67777,140.434906 1217.48009,139.610332 C1221.28242,138.785759 1225.23765,137.727201 1229.3459,136.434627 L1229.3459,150.140303 C1221.82867,153.037452 1213.30635,154.486005 1203.77869,154.486005 C1189.74943,154.486005 1178.97634,150.151489 1171.4591,141.482327 C1163.94187,132.813165 1160.18331,120.411324 1160.18331,104.276431 C1160.18331,94.1141229 1162.00796,85.2222366 1165.65731,77.6005055 C1169.30667,69.9787744 1174.58395,64.139992 1181.48932,60.083983 C1188.39469,56.0279741 1196.50182,54 1205.81095,54 C1215.60084,54 1224.64761,56.0948303 1232.95154,60.2845539 L1227.31364,73.5890882 C1224.07948,72.0290847 1220.65962,70.6585308 1217.05397,69.4773853 C1213.44832,68.2962399 1209.65698,67.705676 1205.67984,67.705676 Z M1302.3054,152.94402 L1274.5138,71.3833641 L1273.98943,71.3833641 C1274.73229,83.496173 1275.10372,94.851761 1275.10372,105.450469 L1275.10372,152.94402 L1260.88019,152.94402 L1260.88019,55.2849873 L1282.96927,55.2849873 L1309.58104,132.971345 L1309.97431,132.971345 L1337.37264,55.2849873 L1359.52726,55.2849873 L1359.52726,152.94402 L1344.45163,152.94402 L1344.45163,104.64889 C1344.45163,99.7948598 1344.5718,93.4713559 1344.81213,85.6781884 C1345.05247,77.8850209 1345.26003,73.1646589 1345.43482,71.5169606 L1344.91045,71.5169606 L1316.13566,152.94402 L1302.3054,152.94402 Z M1451,126.606654 C1451,135.298102 1447.92504,142.117443 1441.77504,147.064883 C1435.62503,152.012322 1427.14164,154.486005 1416.32461,154.486005 C1405.50758,154.486005 1396.65344,152.770027 1389.76195,149.338019 L1389.76195,134.228347 C1394.12365,136.323209 1398.7579,137.972331 1403.66482,139.175762 C1408.57174,140.379193 1413.14056,140.9809 1417.37141,140.9809 C1423.56503,140.9809 1428.13385,139.777487 1431.07801,137.370624 C1434.02216,134.963762 1435.49421,131.732375 1435.49421,127.676366 C1435.49421,124.0215 1434.1421,120.923826 1431.43784,118.383249 C1428.73359,115.842672 1423.15069,112.834139 1414.68898,109.35756 C1405.96556,105.747266 1399.81565,101.624462 1396.23905,96.9890228 C1392.66245,92.353584 1390.87418,86.7822267 1390.87418,80.2747838 C1390.87418,72.1181943 1393.70924,65.6999907 1399.37946,61.0199804 C1405.04968,56.3399701 1412.66074,54 1422.21288,54 C1431.37246,54 1440.48829,56.0502595 1449.56064,60.15084 L1444.58832,73.1879464 C1436.083,69.5330812 1428.49374,67.705676 1421.82033,67.705676 C1416.76075,67.705676 1412.92251,68.8310902 1410.30548,71.0819523 C1407.68846,73.3328144 1406.37997,76.3079192 1406.37997,80.0073559 C1406.37997,82.547933 1406.90336,84.7207623 1407.95017,86.5259092 C1408.99698,88.331056 1410.71983,90.0358913 1413.11877,91.6404663 C1415.51771,93.2450413 1419.83573,95.3621571 1426.07297,97.9918771 C1433.09532,100.978169 1438.24206,103.763848 1441.51334,106.348997 C1444.78462,108.934145 1447.18352,111.853536 1448.71012,115.107258 C1450.23671,118.360979 1451,122.194073 1451,126.606654 Z" id="path-19"></path>
        <filter x="-0.5%" y="-3.5%" width="101.0%" height="110.9%" filterUnits="objectBoundingBox" id="filter-20">
            <feOffset dx="0" dy="2" in="SourceAlpha" result="shadowOffsetOuter1"></feOffset>
            <feGaussianBlur stdDeviation="1.5" in="shadowOffsetOuter1" result="shadowBlurOuter1"></feGaussianBlur>
            <feColorMatrix values="0 0 0 0 0   0 0 0 0 0   0 0 0 0 0  0 0 0 0.242810236 0" type="matrix" in="shadowBlurOuter1"></feColorMatrix>
        </filter>
    </defs>
    <g id="logotype-inline" stroke="none" stroke-width="1" fill="none" fill-rule="evenodd">
        <g id="Group-2">
            <g id="butterfly">
                <g id="Oval-2" transform="translate(106.391003, 178.962092) rotate(1.000000) translate(-106.391003, -178.962092) ">
                    <use fill="black" fill-opacity="1" filter="url(#filter-3)" xlink:href="#path-2"></use>
                    <use fill="#1785DB" fill-rule="evenodd" xlink:href="#path-2"></use>
                    <use fill="url(#linearGradient-1)" fill-rule="evenodd" style="mix-blend-mode: soft-light;" xlink:href="#path-2"></use>
                </g>
                <g id="Oval-2-Copy" transform="translate(149.280277, 179.474510) scale(-1, 1) rotate(1.000000) translate(-149.280277, -179.474510) ">
                    <use fill="black" fill-opacity="1" filter="url(#filter-5)" xlink:href="#path-4"></use>
                    <use fill="#1785DB" fill-rule="evenodd" xlink:href="#path-4"></use>
                    <use fill="url(#linearGradient-1)" fill-rule="evenodd" style="mix-blend-mode: soft-light;" xlink:href="#path-4"></use>
                </g>
                <g id="Oval-Copy" transform="translate(66.958478, 113.628758) rotate(-41.000000) translate(-66.958478, -113.628758) ">
                    <use fill="black" fill-opacity="1" filter="url(#filter-8)" xlink:href="#path-7"></use>
                    <use fill="#166AAC" fill-rule="evenodd" xlink:href="#path-7"></use>
                    <use fill-opacity="0.55" fill="url(#linearGradient-6)" fill-rule="evenodd" style="mix-blend-mode: soft-light;" xlink:href="#path-7"></use>
                </g>
                <path d="M87.5991432,181.396078 C92.1233587,138.027677 96.0207612,101.769435 96.0207612,67.7490998 C96.0207612,33.7287644 78.2239163,6.3238403 66.3183391,6.14983341 C54.4127619,5.97582653 36.615917,33.7287644 36.615917,67.7490998 C36.615917,101.769435 69.2051098,152.21023 87.5991432,181.396078 Z" id="Oval-Copy-4_" fill="url(#linearGradient-9)" opacity="0.55" transform="translate(66.318339, 93.772549) rotate(-27.000000) translate(-66.318339, -93.772549) "></path>
                <g id="Oval" transform="translate(68.622837, 91.979085) rotate(-25.000000) translate(-68.622837, -91.979085) ">
                    <use fill="black" fill-opacity="1" filter="url(#filter-13)" xlink:href="#path-12"></use>
                    <use fill="#1785DB" fill-rule="evenodd" xlink:href="#path-12"></use>
                    <use fill="url(#linearGradient-10)" fill-rule="evenodd" style="mix-blend-mode: soft-light;" xlink:href="#path-12"></use>
                    <use fill="url(#linearGradient-11)" fill-rule="evenodd" xlink:href="#path-12"></use>
                </g>
                <g id="Oval-Copy-2" transform="translate(176.550173, 121.315033) scale(-1, 1) rotate(-33.000000) translate(-176.550173, -121.315033) ">
                    <use fill="black" fill-opacity="1" filter="url(#filter-16)" xlink:href="#path-15"></use>
                    <use fill="#166AAC" fill-rule="evenodd" xlink:href="#path-15"></use>
                    <use fill-opacity="0.44" fill="url(#linearGradient-14)" fill-rule="evenodd" style="mix-blend-mode: soft-light;" xlink:href="#path-15"></use>
                </g>
                <path d="M185.733934,176.015686 C184.925426,146.220617 187.102542,125.395663 186.908056,108.745012 C186.71357,92.0943612 184.947241,55.717474 175.748439,55.5977976 C166.549636,55.4781212 156.961938,81.455765 156.961938,104.853866 C156.961938,128.251967 161.638196,149.925421 185.733934,176.015686 Z" id="Oval-Copy-3_" fill="url(#linearGradient-9)" opacity="0.552964154" transform="translate(171.941176, 115.806536) scale(-1, 1) rotate(-28.000000) translate(-171.941176, -115.806536) "></path>
                <g id="Oval-Copy-4" transform="translate(169.124567, 113.500654) scale(-1, 1) rotate(-25.000000) translate(-169.124567, -113.500654) ">
                    <use fill="black" fill-opacity="1" filter="url(#filter-18)" xlink:href="#path-17"></use>
                    <use fill="#1785DB" fill-rule="evenodd" xlink:href="#path-17"></use>
                    <use fill="url(#linearGradient-10)" fill-rule="evenodd" style="mix-blend-mode: soft-light;" xlink:href="#path-17"></use>
                    <use fill="url(#linearGradient-11)" fill-rule="evenodd" xlink:href="#path-17"></use>
                </g>
            </g>
            <g id="BUTTERFLY.CMS">
                <use fill="black" fill-opacity="1" filter="url(#filter-20)" xlink:href="#path-19"></use>
                <use fill="#1785DB" fill-rule="evenodd" xlink:href="#path-19"></use>
            </g>
        </g>
    </g>
</svg>